<svg xmlns="http://www.w3.org/2000/svg" viewBox="0 0 405 175" role="img" aria-label="techinova logosu"><path fill="#E06A8B" d="M8 48H91V64H59V131H41V64H8Z"/><path fill="#F5F3F4" d="M66 77H81L98 105V77H112V132H98L80 102V132H66Z"/><path fill="#f5f3f4" d="M159.547 104.0Q156.763 104.551 154.0515 104.4495Q151.34 104.348 149.223 103.3475Q147.106 102.347 146.004 100.23Q145.076 98.374 145.0035 96.4745Q144.931 94.575 144.931 92.168V63.98H150.093V91.936Q150.093 93.85 150.1365 95.213Q150.18 96.576 150.731 97.562Q151.775 99.418 154.0515 99.737Q156.328 100.056 159.547 99.563ZM138.58 76.943V72.68H159.547V76.943Z"/><path fill="#f5f3f4" d="M177.499 104.87Q172.88799999999998 104.87 169.45149999999998 102.8255Q166.015 100.781 164.101 97.11250000000001Q162.18699999999998 93.444 162.18699999999998 88.543Q162.18699999999998 83.41 164.072 79.6545Q165.957 75.899 169.3355 73.8545Q172.714 71.81 177.267 71.81Q181.994 71.81 185.3145 73.985Q188.635 76.16 190.3025 80.191Q191.97 84.222 191.738 89.78999999999999H186.518V87.934Q186.43099999999998 82.163 184.16899999999998 79.3065Q181.90699999999998 76.45 177.441 76.45Q172.656 76.45 170.16199999999998 79.524Q167.66799999999998 82.598 167.66799999999998 88.34Q167.66799999999998 93.879 170.16199999999998 96.924Q172.656 99.969 177.267 99.969Q180.37 99.969 182.661 98.548Q184.952 97.127 186.257 94.459L191.21599999999998 96.17Q189.38899999999998 100.317 185.7205 102.5935Q182.052 104.87 177.499 104.87ZM165.928 89.78999999999999V85.643H189.07V89.78999999999999Z"/><path fill="#f5f3f4" d="M209.37099999999998 104.87Q204.61499999999998 104.87 201.29449999999997 102.7385Q197.974 100.607 196.23399999999998 96.866Q194.49399999999997 93.125 194.43599999999998 88.34Q194.49399999999997 83.439 196.27749999999997 79.71249999999999Q198.06099999999998 75.98599999999999 201.396 73.898Q204.731 71.81 209.42899999999997 71.81Q214.38799999999998 71.81 217.96949999999998 74.24600000000001Q221.551 76.682 222.76899999999998 80.916L217.665 82.453Q216.67899999999997 79.727 214.46049999999997 78.219Q212.242 76.711 209.37099999999998 76.711Q206.152 76.711 204.064 78.2045Q201.976 79.69800000000001 200.961 82.3225Q199.946 84.947 199.91699999999997 88.34Q199.975 93.56 202.3385 96.7645Q204.702 99.969 209.37099999999998 99.969Q212.445 99.969 214.475 98.5625Q216.505 97.156 217.54899999999998 94.488L222.76899999999998 95.851Q221.14499999999998 100.23 217.694 102.55000000000001Q214.243 104.87 209.37099999999998 104.87Z"/><path fill="#f5f3f4" d="M249.015 104.0V88.311Q249.015 86.078 248.62349999999998 84.019Q248.232 81.96 247.26049999999998 80.32149999999999Q246.289 78.68299999999999 244.6505 77.726Q243.012 76.769 240.518 76.769Q238.575 76.769 236.9945 77.42150000000001Q235.414 78.074 234.283 79.40799999999999Q233.152 80.74199999999999 232.5285 82.7575Q231.905 84.773 231.905 87.499L228.512 86.455Q228.512 81.902 230.1505 78.6395Q231.789 75.377 234.7615 73.6225Q237.734 71.868 241.765 71.868Q244.81 71.868 246.95600000000002 72.82499999999999Q249.102 73.782 250.523 75.3625Q251.944 76.943 252.75599999999997 78.9005Q253.56799999999998 80.858 253.9015 82.8735Q254.235 84.889 254.235 86.687V104.0ZM226.685 104.0V62.239999999999995H231.325V85.295H231.905V104.0Z"/><path fill="#f5f3f4" d="M260.355 67.14099999999999V61.805H265.517V67.14099999999999ZM260.355 104.0V72.68H265.517V104.0Z"/><path fill="#f5f3f4" d="M294.518 104.0V88.311Q294.518 86.078 294.12649999999996 84.019Q293.735 81.96 292.7635 80.32149999999999Q291.792 78.68299999999999 290.1535 77.726Q288.515 76.769 286.02099999999996 76.769Q284.078 76.769 282.49749999999995 77.42150000000001Q280.917 78.074 279.78599999999994 79.40799999999999Q278.655 80.74199999999999 278.03149999999994 82.7575Q277.40799999999996 84.773 277.40799999999996 87.499L274.015 86.455Q274.015 81.902 275.6535 78.6395Q277.292 75.377 280.2645 73.6225Q283.23699999999997 71.868 287.268 71.868Q290.313 71.868 292.45899999999995 72.82499999999999Q294.60499999999996 73.782 296.02599999999995 75.3625Q297.447 76.943 298.259 78.9005Q299.07099999999997 80.858 299.4045 82.8735Q299.738 84.889 299.738 86.687V104.0ZM272.188 104.0V72.68H276.828V81.061H277.40799999999996V104.0Z"/><path fill="#f5f3f4" d="M318.61799999999994 104.87Q313.94899999999996 104.87 310.5704999999999 102.753Q307.19199999999995 100.636 305.36499999999995 96.895Q303.53799999999995 93.154 303.53799999999995 88.311Q303.53799999999995 83.381 305.39399999999995 79.669Q307.24999999999994 75.957 310.6429999999999 73.8835Q314.03599999999994 71.81 318.61799999999994 71.81Q323.316 71.81 326.70899999999995 73.9125Q330.102 76.015 331.9145 79.7415Q333.727 83.468 333.727 88.311Q333.727 93.212 331.9 96.9385Q330.073 100.665 326.67999999999995 102.76750000000001Q323.287 104.87 318.61799999999994 104.87ZM318.61799999999994 99.969Q323.48999999999995 99.969 325.86799999999994 96.721Q328.246 93.473 328.246 88.311Q328.246 83.00399999999999 325.83899999999994 79.85749999999999Q323.43199999999996 76.711 318.61799999999994 76.711Q315.34099999999995 76.711 313.22399999999993 78.19Q311.10699999999997 79.669 310.063 82.279Q309.01899999999995 84.889 309.01899999999995 88.311Q309.01899999999995 93.589 311.4549999999999 96.779Q313.89099999999996 99.969 318.61799999999994 99.969Z"/><path fill="#f5f3f4" d="M346.575 104.0 335.207 72.68H340.42699999999996L349.21399999999994 97.417L357.972 72.68H363.22099999999995L351.85299999999995 104.0Z"/><path fill="#f5f3f4" d="M375.344 104.87Q371.835 104.87 369.4715 103.5795Q367.10799999999995 102.289 365.9045 100.172Q364.70099999999996 98.055 364.70099999999996 95.532Q364.70099999999996 93.06700000000001 365.64349999999996 91.25450000000001Q366.58599999999996 89.442 368.29699999999997 88.23849999999999Q370.008 87.035 372.38599999999997 86.339Q374.61899999999997 85.73 377.38849999999996 85.2805Q380.15799999999996 84.831 383.0 84.45400000000001Q385.842 84.077 388.30699999999996 83.729L386.45099999999996 84.80199999999999Q386.53799999999995 80.626 384.7835 78.625Q383.029 76.624 378.73699999999997 76.624Q375.895 76.624 373.76349999999996 77.9145Q371.63199999999995 79.205 370.76199999999994 82.105L365.861 80.626Q366.99199999999996 76.508 370.24 74.15899999999999Q373.488 71.81 378.79499999999996 71.81Q383.058 71.81 386.11749999999995 73.3325Q389.17699999999996 74.85499999999999 390.51099999999997 77.929Q391.178 79.37899999999999 391.352 81.07549999999999Q391.52599999999995 82.77199999999999 391.52599999999995 84.628V104.0H386.94399999999996V96.489L388.017 97.185Q386.248 100.984 383.0725 102.92699999999999Q379.897 104.87 375.344 104.87ZM376.12699999999995 100.549Q378.91099999999994 100.549 380.9555 99.5485Q383.0 98.548 384.24699999999996 96.90950000000001Q385.49399999999997 95.271 385.871 93.328Q386.306 91.878 386.3495 90.09450000000001Q386.393 88.311 386.393 87.354L388.191 88.137Q385.66799999999995 88.485 383.23199999999997 88.804Q380.796 89.123 378.621 89.4855Q376.44599999999997 89.848 374.70599999999996 90.341Q373.42999999999995 90.747 372.3135 91.38499999999999Q371.19699999999995 92.023 370.5155 93.0235Q369.83399999999995 94.024 369.83399999999995 95.503Q369.83399999999995 96.779 370.4865 97.939Q371.13899999999995 99.099 372.51649999999995 99.82400000000001Q373.89399999999995 100.549 376.12699999999995 100.549Z"/></svg>